<svg width="100" height="100" viewBox="0 0 100 100" xmlns="http://www.w3.org/2000/svg">
  <path d="M20 20c15 0 30 15 30 30s-15 30-30 30S-10 65-10 50s15-30 30-30zm0 10c-11.046 0-20 8.954-20 20s8.954 20 20 20 20-8.954 20-20-8.954-20-20-20z" fill="#000"/>
  <path d="M80 20c15 0 30 15 30 30s-15 30-30 30-30-15-30-30 15-30 30-30zm0 10c-11.046 0-20 8.954-20 20s8.954 20 20 20 20-8.954 20-20-8.954-20-20-20z" fill="#000"/>
  <path d="M50 60c15 0 30 15 30 30s-15 30-30 30-30-15-30-30 15-30 30-30zm0 10c-11.046 0-20 8.954-20 20s8.954 20 20 20 20-8.954 20-20-8.954-20-20-20z" fill="#000"/>
</svg>
