<svg width="200" height="200" viewBox="0 0 200 200" xmlns="http://www.w3.org/2000/svg">
  <path d="M100 0C70 0 50 50 50 100s20 100 50 100 50-50 50-100S130 0 100 0zm0 40c-16.569 0-30 26.863-30 60s13.431 60 30 60 30-26.863 30-60-13.431-60-30-60z" fill="#000"/>
  <path d="M30 70C10 70 0 90 0 110s10 40 30 40 30-20 30-40-10-40-30-40zm0 20c-5.523 0-10 8.954-10 20s4.477 20 10 20 10-8.954 10-20-4.477-20-10-20z" fill="#000"/>
  <path d="M170 70c-20 0-30 20-30 40s10 40 30 40 30-20 30-40-10-40-30-40zm0 20c-5.523 0-10 8.954-10 20s4.477 20 10 20 10-8.954 10-20-4.477-20-10-20z" fill="#000"/>
</svg>
